# xmcd
#
# Track frame offsets:
#       182
#       16715
#       36572
#       56527
#       99995
#       134720
#
# Disc length: 2146 seconds
#
# Revision: 1
# Processed by: cddbd v1.5PL3 Copyright (c) Steve Scherf et al.
# Submitted via: WhereIsIt 3.57
#
DISCID=4b086006
DTITLE=Michelle Gayle - Do You Know
DYEAR=1994
DGENRE=
TTITLE0=Do You Know (radio edit)
TTITLE1=Do You Know (Ignorant 'Spoonin' remix)
TTITLE2=Do You Know (Linslee remix)
TTITLE3=Do You Know (Tony De Vit mix)
TTITLE4=Do You Know (Full Intention vocal mix)
TTITLE5=Do You Know (K Klass vocal mix)
EXTD=
EXTT0=
EXTT1=
EXTT2=
EXTT3=
EXTT4=
EXTT5=
PLAYORDER=
